<svg id="visual" viewBox="0 0 900 600" width="900" height="600" xmlns="http://www.w3.org/2000/svg" xmlns:xlink="http://www.w3.org/1999/xlink" version="1.1"><rect width="900" height="600" fill="#ffffff"></rect><g><g transform="translate(408 452)"><path d="M104.3 -31.3C116.9 4.9 96.3 54.6 61.2 78.9C26 103.2 -23.7 102.1 -53.9 79C-84.1 56 -94.9 10.8 -82.6 -24.9C-70.4 -60.6 -35.2 -86.9 5.3 -88.6C45.8 -90.3 91.7 -67.5 104.3 -31.3Z" fill="#8d8d8d"></path></g><g transform="translate(773 264)"><path d="M65.5 -21.5C73.7 4 61.4 35.8 38 53C14.6 70.2 -20 72.7 -44.4 56.1C-68.9 39.6 -83.1 4 -74 -22.7C-64.9 -49.4 -32.5 -67.1 -1.9 -66.5C28.6 -65.9 57.3 -46.9 65.5 -21.5Z" fill="#8d8d8d"></path></g><g transform="translate(41 69)"><path d="M93.7 -29.4C106.6 9 91.7 57.4 57.8 82.9C23.8 108.4 -29.2 110.8 -61.1 87C-93.1 63.1 -103.8 13 -90.1 -26.7C-76.3 -66.4 -38.2 -95.6 1.1 -95.9C40.5 -96.3 80.9 -67.9 93.7 -29.4Z" fill="#8d8d8d"></path></g></g></svg>