<svg id="visual" viewBox="0 0 900 600" width="900" height="600" xmlns="http://www.w3.org/2000/svg" xmlns:xlink="http://www.w3.org/1999/xlink" version="1.1"><rect x="0" y="0" width="900" height="600" fill="#ffffff"></rect><path d="M379 0L405 0L405 86L334 86L334 171L471 171L471 257L497 257L497 343L398 343L398 429L351 429L351 514L499 514L499 600L0 600L0 514L0 514L0 429L0 429L0 343L0 343L0 257L0 257L0 171L0 171L0 86L0 86L0 0L0 0Z" fill="#ffffff"></path><path d="M271 0L335 0L335 86L337 86L337 171L213 171L213 257L360 257L360 343L274 343L274 429L336 429L336 514L265 514L265 600L0 600L0 514L0 514L0 429L0 429L0 343L0 343L0 257L0 257L0 171L0 171L0 86L0 86L0 0L0 0Z" fill="#bebdbf"></path><path d="M153 0L206 0L206 86L156 86L156 171L116 171L116 257L174 257L174 343L139 343L139 429L123 429L123 514L175 514L175 600L0 600L0 514L0 514L0 429L0 429L0 343L0 343L0 257L0 257L0 171L0 171L0 86L0 86L0 0L0 0Z" fill="#818082"></path></svg>